<?xml version="1.0" ?><svg id="Layer_1" style="enable-background:new 0 0 512 512;" version="1.1" viewBox="0 0 512 512" xml:space="preserve" xmlns="http://www.w3.org/2000/svg" xmlns:xlink="http://www.w3.org/1999/xlink"><circle style="fill:#90DFAA;" cx="254" cy="254" r="254"/>
<path style="fill:#E6E9EE;" d="M368,380.4H148.4c-7.2,0-13.2-6-13.2-13.2V102.8c0-7.2,6-13.2,13.2-13.2H368c7.2,0,13.2,6,13.2,13.2
	v264.4C381.2,374.4,375.2,380.4,368,380.4z"/>
<path style="fill:#2B3B4E;" d="M325.6,354.4H190.8c-5.6,0-10.4-4.8-10.4-10.4v-97.2c0-5.6,4.8-10.4,10.4-10.4h134.8
	c5.6,0,10.4,4.8,10.4,10.4V344C336,350,331.2,354.4,325.6,354.4z"/>
<path style="fill:#324A5E;" d="M343.2,264.4h-170c-7.2,0-13.2-6-13.2-13.2V128.4c0-7.2,6-13.2,13.2-13.2h170c7.2,0,13.2,6,13.2,13.2
	v123.2C356.4,258.4,350.4,264.4,343.2,264.4z"/>
<path style="fill:#FFFFFF;" d="M324.4,179.2H192c-1.6,0-2.8-1.2-2.8-2.8v-32.8c0-1.6,1.2-2.8,2.8-2.8h132.4c1.6,0,2.8,1.2,2.8,2.8
	v32.8C327.2,178,326,179.2,324.4,179.2z"/>
<g>
	<rect x="192.8" y="144.4" style="fill:#ACB3BA;" width="19.2" height="31.6"/>
	<rect x="215.2" y="144.4" style="fill:#ACB3BA;" width="19.2" height="31.6"/>
	<rect x="237.6" y="144.4" style="fill:#ACB3BA;" width="19.2" height="31.6"/>
	<rect x="260" y="144.4" style="fill:#ACB3BA;" width="19.2" height="31.6"/>
</g>
<g>
	<rect x="282.4" y="144.4" style="fill:#FF7058;" width="19.2" height="31.6"/>
	<rect x="304.8" y="144.4" style="fill:#FF7058;" width="19.2" height="31.6"/>
</g>
<g>
	<path style="fill:#FFFFFF;" d="M198.8,152.4h6.4v16H202v-12.8h-3.2V152.4z"/>
	<path style="fill:#FFFFFF;" d="M229.2,152v3.2h-6.4v2.8c0.4,0,1.2-0.4,1.6-0.4c1.6,0,2.8,0.4,4,1.2s1.6,2,1.6,3.6s-0.4,2.8-1.6,4
		c-1.2,1.2-2.4,1.6-4.4,1.6s-4-0.8-5.6-2.4l2-2.4l0.4,0.4c0.4,0,0.8,0.4,1.2,0.8c0.8,0.4,1.2,0.4,2,0.4s1.2,0,1.6-0.4
		c0.4-0.4,0.8-0.8,0.8-1.6s-0.4-1.2-0.8-1.6c-0.4-0.4-1.2-0.4-2-0.4s-1.6,0.4-2.8,0.8l-1.6-1.6v-7.6h10V152z"/>
	<path style="fill:#FFFFFF;" d="M247.6,155.6c-0.8,0-1.6,0.4-2,0.8c-0.4,0.4-0.8,1.2-0.8,2.4c0.8-0.4,2-0.8,2.8-0.8
		c1.2,0,2.4,0.4,3.2,1.2s1.2,2,1.2,3.6s-0.4,2.4-1.6,3.6c-0.8,0.8-2,1.2-3.6,1.2c-1.2,0-2,0-2.8-0.4s-1.2-0.8-1.6-1.6
		c-0.8-1.2-1.2-3.2-1.2-5.2c0-1.2,0-2.4,0.4-3.6c0.4-0.8,0.8-1.6,1.2-2.4c1.2-1.2,2.4-1.6,4-1.6c0.8,0,1.2,0,2,0.4
		c0.8,0,1.2,0.4,1.2,0.4c0.4,0.4,0.8,0.4,1.2,0.8l-1.6,2.4c0,0,0,0-0.4-0.4c0,0-0.4-0.4-0.8-0.4C248.8,155.6,248,155.6,247.6,155.6z
		 M247.2,160.8c-0.8,0-1.2,0-1.6,0.4c-0.4,0.4-0.8,0.8-0.8,1.6c0,0.4,0.4,1.2,0.8,1.6c0.4,0.4,0.8,0.8,1.6,0.8s1.2,0,1.6-0.4
		c0.4-0.4,0.8-0.8,0.8-1.6s0-1.2-0.4-1.6C248.4,160.8,248,160.8,247.2,160.8z"/>
	<path style="fill:#FFFFFF;" d="M273.6,153.2v2.8h-5.2v2.4c0.4,0,0.8,0,1.2,0c1.2,0,2.4,0.4,3.2,1.2c0.8,0.8,1.6,2,1.6,3.2
		s-0.4,2.4-1.6,3.2c-0.8,0.8-2,1.2-3.6,1.2c-2,0-3.2-0.8-4.4-2l1.6-2.4l0.4,0.4c0,0,0.4,0.4,1.2,0.8c0.4,0.4,1.2,0.4,1.6,0.4
		s0.8,0,1.2-0.4c0.4-0.4,0.8-0.8,0.8-1.2c0-0.8-0.4-1.2-0.8-1.6c-0.4-0.4-0.8-0.4-1.6-0.4c-0.8,0-1.6,0.4-2.4,0.8l-1.2-1.2v-6.8h8
		V153.2z"/>
	<path style="fill:#FFFFFF;" d="M292.4,161.2v-2.4h2.8v2.4h1.6v2.4h-1.6v3.2h-2.8v-3.2h-5.2v-2.4l4.8-7.6h3.2l-4.4,7.2h1.6V161.2z"
		/>
	<path style="fill:#FFFFFF;" d="M311.6,154h5.2v12.4H314v-10h-2.4V154z"/>
</g>
<g>
	<rect x="194.8" y="201.6" style="fill:#2B3B4E;" width="127.2" height="16.4"/>
	<rect x="184.4" y="206" style="fill:#2B3B4E;" width="147.6" height="8"/>
</g>
<path style="fill:#FFFFFF;" d="M319.6,208.4H196.8c-0.8,0-1.6,0.8-1.6,1.6s0.8,1.6,1.6,1.6h122.8c0.8,0,1.6-0.8,1.6-1.6
	S320.8,208.4,319.6,208.4z"/>
<rect x="288.4" y="354.4" style="fill:#FF7058;" width="18" height="64"/>
<rect x="250.4" y="354.4" style="fill:#54C0EB;" width="18" height="64"/>
<rect x="210" y="354.4" style="fill:#FFD05B;" width="18" height="64"/>
<g>
</g>
<g>
</g>
<g>
</g>
<g>
</g>
<g>
</g>
<g>
</g>
<g>
</g>
<g>
</g>
<g>
</g>
<g>
</g>
<g>
</g>
<g>
</g>
<g>
</g>
<g>
</g>
<g>
</g></svg>