<?xml version="1.0" ?><svg id="Layer_1" style="enable-background:new 0 0 512 512;" version="1.1" viewBox="0 0 512 512" xml:space="preserve" xmlns="http://www.w3.org/2000/svg" xmlns:xlink="http://www.w3.org/1999/xlink"><rect id="backgroundrect" width="100%" height="100%" x="0" y="0" fill="none" stroke="none"/>






















<g class="currentLayer" style=""><title>Layer 1</title><g id="svg_2" class="" fill="#ebeb1a" fill-opacity="1">
	<path style="" d="M69.84256858825682,0.8273124694824219 H0.6425685882568359 v46.8 h69.2 c12.8,0 23.2,-10.4 23.2,-23.2 S82.64256858825684,0.8273124694824219 69.84256858825682,0.8273124694824219 z" id="svg_3" fill="#ebeb1a" fill-opacity="1"/>
	<path style="" d="M103.84256858825682,69.22731246948243 H0.6425685882568359 v46.8 h103.2 c12.8,0 23.2,-10.4 23.2,-23.2 C127.04256858825681,79.62731246948243 116.64256858825684,69.22731246948243 103.84256858825682,69.22731246948243 z" id="svg_4" fill="#ebeb1a" fill-opacity="1"/>
	<path style="" d="M137.84256858825682,137.62731246948243 H0.6425685882568359 v46.8 h137.2 c12.8,0 23.2,-10.4 23.2,-23.2 C161.0425685882568,148.0273124694824 150.64256858825684,137.62731246948243 137.84256858825682,137.62731246948243 z" id="svg_5" fill="#ebeb1a" fill-opacity="1"/>
	<path style="" d="M171.44256858825685,206.0273124694824 H0.6425685882568359 V252.82731246948242 h171.2 c12.8,0 23.2,-10.4 23.2,-23.2 C195.0425685882568,216.42731246948244 184.24256858825686,206.0273124694824 171.44256858825685,206.0273124694824 z" id="svg_6" fill="#ebeb1a" fill-opacity="1"/>
	<path style="" d="M205.44256858825685,274.42731246948244 H0.6425685882568359 v46.8 h204.8 c12.8,0 23.2,-10.4 23.2,-23.2 C228.64256858825684,284.8273124694824 218.24256858825686,274.42731246948244 205.44256858825685,274.42731246948244 z" id="svg_7" fill="#ebeb1a" fill-opacity="1"/>
</g><path style="fill:#FF7058;" d="M35.44256858825685,36.427312469482416 l-2.4,-6 h-11.6 l-2.8,6 h-6.4 l12,-27.6 h6 l12,27.6 H35.44256858825685 zM27.04256858825684,16.827312469482422 l-3.6,8 h7.2 L27.04256858825684,16.827312469482422 z" id="svg_8" class=""/><path style="fill:#FFD05B;" d="M27.842568588256825,104.82731246948242 h-12 v-27.6 H26.642568588256836 c2,0 3.6,0.4 4.8,0.8 c1.2,0.4 2.4,1.2 3.2,2 c1.2,1.6 2,3.2 2,4.8 c0,2 -0.8,3.6 -2,4.8 c-0.4,0.4 -0.8,0.8 -0.8,0.8 s-0.4,0.4 -0.8,0.4 c1.6,0.4 3.2,1.2 4,2.4 c1.2,1.2 1.6,2.8 1.6,4.4 c0,2 -0.8,3.6 -2,5.2 C34.24256858825683,104.02731246948241 31.442568588256847,104.82731246948242 27.842568588256825,104.82731246948242 zM21.842568588256825,88.42731246948242 h2.8 c1.6,0 2.8,0 4,-0.4 c0.8,-0.4 1.2,-1.2 1.2,-2.4 s-0.4,-2 -1.2,-2.4 s-2,-0.4 -4,-0.4 h-2.8 V88.42731246948242 zM21.842568588256825,99.62731246948243 h4.4 c1.6,0 3.2,-0.4 4,-0.8 c0.8,-0.4 1.2,-1.2 1.2,-2.4 s-0.4,-2 -1.6,-2.4 c-0.8,-0.4 -2.4,-0.8 -4.4,-0.8 h-3.6 L21.842568588256825,99.62731246948243 L21.842568588256825,99.62731246948243 z" id="svg_9" class=""/><path style="fill:#2C9984;" d="M28.24256858825683,168.0273124694824 c3.2,0 5.6,-1.2 7.6,-3.6 l4,4 c-3.2,3.6 -6.8,5.2 -11.2,5.2 s-7.6,-1.2 -10.4,-4 c-2.8,-2.8 -4,-6 -4,-10.4 s1.6,-7.6 4.4,-10.4 c2.8,-2.8 6.4,-4 10.4,-4 c4.4,0 8.4,1.6 11.6,5.2 l-4,4.4 c-2,-2.4 -4.4,-3.6 -7.2,-3.6 c-2.4,0 -4.4,0.8 -6,2.4 c-1.6,1.6 -2.4,3.6 -2.4,6 c0,2.4 0.8,4.8 2.4,6.4 C24.24256858825683,167.2273124694824 26.24256858825683,168.0273124694824 28.24256858825683,168.0273124694824 z" id="svg_10" class=""/><path style="fill:#F1543F;" d="M36.642568588256836,217.62731246948243 c2.8,2.4 4,5.6 4,10 s-1.2,7.6 -4,10.4 c-2.4,2.4 -6.4,3.6 -12,3.6 h-9.6 v-27.6 h10 C30.24256858825683,214.0273124694824 34.24256858825683,215.2273124694824 36.642568588256836,217.62731246948243 zM32.24256858825683,234.0273124694824 c1.6,-1.6 2.4,-3.6 2.4,-6.4 s-0.8,-4.8 -2.4,-6.4 c-1.6,-1.6 -4,-2.4 -7.2,-2.4 h-3.6 v16.8 h4 C28.642568588256836,236.42731246948244 30.642568588256836,235.62731246948243 32.24256858825683,234.0273124694824 z" id="svg_11" class=""/><path style="fill:#54C0EB;" d="M35.44256858825685,282.42731246948244 v5.6 h-14 v5.6 h12.4 v5.2 h-12.4 v5.6 h14.4 v5.6 h-20.4 v-27.6 L35.44256858825685,282.42731246948244 L35.44256858825685,282.42731246948244 z" id="svg_12" class=""/><g id="svg_13" class="">
</g><g id="svg_14" class="">
</g><g id="svg_15" class="">
</g><g id="svg_16" class="">
</g><g id="svg_17" class="">
</g><g id="svg_18" class="">
</g><g id="svg_19" class="">
</g><g id="svg_20" class="">
</g><g id="svg_21" class="">
</g><g id="svg_22" class="">
</g><g id="svg_23" class="">
</g><g id="svg_24" class="">
</g><g id="svg_25" class="">
</g><g id="svg_26" class="">
</g><g id="svg_27" class="">
</g></g>
</svg>